<svg width="160" height="219" viewBox="0 0 160 219" fill="none" xmlns="http://www.w3.org/2000/svg">
<rect width="160" height="219" rx="10" fill="#1D1D1D"/>
<rect x="29" y="160" width="102" height="39" rx="19.5" stroke="white"/>
<path d="M48.36 173.8V185H46.52V175.56H41.96V185H40.12V173.8H48.36ZM51.8524 181.736C51.9804 182.344 52.2737 182.813 52.7324 183.144C53.191 183.464 53.751 183.624 54.4124 183.624C55.3297 183.624 56.0177 183.293 56.4764 182.632L57.9004 183.464C57.111 184.627 55.943 185.208 54.3964 185.208C53.095 185.208 52.0444 184.813 51.2444 184.024C50.4444 183.224 50.0444 182.216 50.0444 181C50.0444 179.805 50.439 178.808 51.2284 178.008C52.0177 177.197 53.031 176.792 54.2684 176.792C55.4417 176.792 56.4017 177.203 57.1484 178.024C57.9057 178.845 58.2844 179.843 58.2844 181.016C58.2844 181.197 58.263 181.437 58.2204 181.736H51.8524ZM51.8364 180.328H56.5404C56.423 179.677 56.151 179.187 55.7244 178.856C55.3084 178.525 54.8177 178.36 54.2524 178.36C53.6124 178.36 53.079 178.536 52.6524 178.888C52.2257 179.24 51.9537 179.72 51.8364 180.328ZM64.3329 176.792C65.4315 176.792 66.3702 177.203 67.1489 178.024C67.9275 178.835 68.3169 179.827 68.3169 181C68.3169 182.184 67.9275 183.181 67.1489 183.992C66.3702 184.803 65.4315 185.208 64.3329 185.208C63.1169 185.208 62.1835 184.76 61.5329 183.864V188.2H59.8049V177H61.5329V178.152C62.1835 177.245 63.1169 176.792 64.3329 176.792ZM62.2529 182.84C62.7329 183.32 63.3355 183.56 64.0609 183.56C64.7862 183.56 65.3889 183.32 65.8689 182.84C66.3489 182.349 66.5889 181.736 66.5889 181C66.5889 180.264 66.3489 179.656 65.8689 179.176C65.3889 178.685 64.7862 178.44 64.0609 178.44C63.3355 178.44 62.7329 178.685 62.2529 179.176C61.7729 179.656 61.5329 180.264 61.5329 181C61.5329 181.736 61.7729 182.349 62.2529 182.84ZM71.243 181.736C71.371 182.344 71.6643 182.813 72.123 183.144C72.5817 183.464 73.1417 183.624 73.803 183.624C74.7203 183.624 75.4083 183.293 75.867 182.632L77.291 183.464C76.5017 184.627 75.3337 185.208 73.787 185.208C72.4857 185.208 71.435 184.813 70.635 184.024C69.835 183.224 69.435 182.216 69.435 181C69.435 179.805 69.8297 178.808 70.619 178.008C71.4083 177.197 72.4217 176.792 73.659 176.792C74.8323 176.792 75.7923 177.203 76.539 178.024C77.2963 178.845 77.675 179.843 77.675 181.016C77.675 181.197 77.6537 181.437 77.611 181.736H71.243ZM71.227 180.328H75.931C75.8137 179.677 75.5417 179.187 75.115 178.856C74.699 178.525 74.2083 178.36 73.643 178.36C73.003 178.36 72.4697 178.536 72.043 178.888C71.6163 179.24 71.3443 179.72 71.227 180.328ZM80.5075 175.88V174.376H84.9875V175.88H80.5075ZM84.9875 177H86.3155V185H84.6195V179.912L80.5235 185H79.1955V177H80.8915V182.072L84.9875 177ZM94.4325 177V178.664H91.8245V185H90.0965V178.664H87.4725V177H94.4325ZM101.394 177H102.722V185H101.026V179.912L96.9298 185H95.6018V177H97.2978V182.072L101.394 177ZM114.999 174.6L119.799 179.4L114.999 184.2H112.695L116.663 180.232H108.519V178.568H116.663L112.695 174.6H114.999Z" fill="white"/>
<path d="M60.4158 15.8V27H58.2078V17.912H54.2558V27H52.0478V15.8H60.4158ZM67.0609 18.776C68.1383 18.776 69.0556 19.1867 69.8129 20.008C70.5809 20.8187 70.9649 21.816 70.9649 23C70.9649 24.184 70.5809 25.1867 69.8129 26.008C69.0556 26.8187 68.1383 27.224 67.0609 27.224C65.9409 27.224 65.0769 26.8347 64.4689 26.056V30.2H62.4049V19H64.4689V19.944C65.0769 19.1653 65.9409 18.776 67.0609 18.776ZM65.0929 24.632C65.5089 25.048 66.0369 25.256 66.6769 25.256C67.3169 25.256 67.8449 25.048 68.2609 24.632C68.6876 24.2053 68.9009 23.6613 68.9009 23C68.9009 22.3387 68.6876 21.8 68.2609 21.384C67.8449 20.9573 67.3169 20.744 66.6769 20.744C66.0369 20.744 65.5089 20.9573 65.0929 21.384C64.6769 21.8 64.4689 22.3387 64.4689 23C64.4689 23.6613 64.6769 24.2053 65.0929 24.632ZM79.2366 26.008C78.4152 26.8187 77.4126 27.224 76.2286 27.224C75.0446 27.224 74.0419 26.8187 73.2206 26.008C72.4099 25.1867 72.0046 24.184 72.0046 23C72.0046 21.816 72.4099 20.8187 73.2206 20.008C74.0419 19.1867 75.0446 18.776 76.2286 18.776C77.4126 18.776 78.4152 19.1867 79.2366 20.008C80.0579 20.8187 80.4686 21.816 80.4686 23C80.4686 24.184 80.0579 25.1867 79.2366 26.008ZM74.6766 24.584C75.0926 25 75.6099 25.208 76.2286 25.208C76.8472 25.208 77.3646 25 77.7806 24.584C78.1966 24.168 78.4046 23.64 78.4046 23C78.4046 22.36 78.1966 21.832 77.7806 21.416C77.3646 21 76.8472 20.792 76.2286 20.792C75.6099 20.792 75.0926 21 74.6766 21.416C74.2712 21.832 74.0686 22.36 74.0686 23C74.0686 23.64 74.2712 24.168 74.6766 24.584ZM86.4687 19H88.5327V27H86.4687V24.456C85.8714 24.648 85.2367 24.744 84.5647 24.744C83.594 24.744 82.8154 24.4987 82.2287 24.008C81.6527 23.5173 81.3647 22.8027 81.3647 21.864V19H83.4287V21.624C83.4287 22.424 83.9247 22.824 84.9167 22.824C85.4927 22.824 86.01 22.7227 86.4687 22.52V19ZM92.1489 23.848C92.4263 24.8507 93.1783 25.352 94.4049 25.352C95.1943 25.352 95.7916 25.0853 96.1969 24.552L97.8609 25.512C97.0716 26.6533 95.9089 27.224 94.3729 27.224C93.0503 27.224 91.9889 26.824 91.1889 26.024C90.3889 25.224 89.9889 24.216 89.9889 23C89.9889 21.7947 90.3836 20.792 91.1729 19.992C91.9623 19.1813 92.9756 18.776 94.2129 18.776C95.3863 18.776 96.3516 19.1813 97.1089 19.992C97.8769 20.8027 98.2609 21.8053 98.2609 23C98.2609 23.2667 98.2343 23.5493 98.1809 23.848H92.1489ZM92.1169 22.248H96.1969C96.0796 21.704 95.8343 21.2987 95.4609 21.032C95.0983 20.7653 94.6823 20.632 94.2129 20.632C93.6583 20.632 93.1996 20.776 92.8369 21.064C92.4743 21.3413 92.2343 21.736 92.1169 22.248ZM101.383 23.848C101.661 24.8507 102.413 25.352 103.639 25.352C104.429 25.352 105.026 25.0853 105.431 24.552L107.095 25.512C106.306 26.6533 105.143 27.224 103.607 27.224C102.285 27.224 101.223 26.824 100.423 26.024C99.6233 25.224 99.2233 24.216 99.2233 23C99.2233 21.7947 99.618 20.792 100.407 19.992C101.197 19.1813 102.21 18.776 103.447 18.776C104.621 18.776 105.586 19.1813 106.343 19.992C107.111 20.8027 107.495 21.8053 107.495 23C107.495 23.2667 107.469 23.5493 107.415 23.848H101.383ZM101.351 22.248H105.431C105.314 21.704 105.069 21.2987 104.695 21.032C104.333 20.7653 103.917 20.632 103.447 20.632C102.893 20.632 102.434 20.776 102.071 21.064C101.709 21.3413 101.469 21.736 101.351 22.248Z" fill="white"/>
</svg>
