<svg width="120" height="147" viewBox="0 0 120 147" fill="none" xmlns="http://www.w3.org/2000/svg">
<rect width="120" height="147" rx="10" fill="#5869FF"/>
<path d="M22.5711 37.5515H30.0686C38.1175 37.5515 41.6825 41.5224 41.6825 48.9862C41.6825 54.5014 39.367 58.6561 33.8174 58.6561C30.6567 58.6561 28.4882 57.3692 26.0258 54.1337L21.7993 48.5818C20.8804 47.4052 19.1531 47.3317 18.0137 48.5818C17.0214 49.6848 17.2052 51.3026 18.1607 52.3689L22.6813 57.4428C24.1882 59.1709 24.813 60.568 24.813 62.3696C24.813 64.9434 23.2326 66.0464 20.4026 66.0464C17.8667 66.0464 15.5513 65.2007 15.5513 60.568V44.7212C15.5513 40.6032 17.7932 37.5515 22.5711 37.5515ZM20.9539 45.1624C20.9539 45.7875 21.3215 46.339 22.2403 46.8169L34.9935 53.288C38.7055 55.1632 40.7636 52.8101 38.8525 50.0893L33.2661 42.0739C31.943 40.1988 31.2815 40.0149 29.2968 40.8238L22.4976 43.6182C21.542 44.0226 20.9539 44.3903 20.9539 45.1624Z" fill="white"/>
<path d="M46.1785 60.8254L46.6931 44.3168C46.7666 42.0372 47.2444 37 52.3162 37C57.0206 37 57.8659 42.2578 53.8966 44.4638L49.523 46.8905C48.1999 47.6258 47.9794 49.023 48.8247 50.6775L52.2427 57.4428C53.1616 59.2812 55.33 59.1709 55.8813 57.0751L59.5933 42.9563C60.6959 38.7281 63.0848 37 66.9806 37C71.5012 37 73.5961 39.7208 73.4123 45.1992L72.861 60.568C72.714 64.7595 70.3251 66.0464 68.1199 66.0464C63.3421 66.0464 63.7831 60.9725 65.5105 56.6339L70.9866 42.9563C71.9422 40.5665 69.149 38.7648 67.6421 41.3018L55.183 62.1858C53.3453 65.2743 51.912 66.0464 49.8538 66.0464C47.5751 66.0464 46.0683 64.3551 46.1785 60.8254Z" fill="white"/>
<path d="M79.0314 60.3107L79.0681 44.28C79.0681 39.9046 80.3545 37.5515 85.3528 37.5515H94.7983C99.0616 37.5515 100.495 39.9046 99.8702 44.3903L99.0984 50.0157C98.5838 53.8396 97.4077 55.0161 95.2026 55.0161C92.6299 55.0161 91.7111 51.8909 93.9897 50.3834L97.224 48.2141C98.2898 47.5155 98.2163 46.3757 97.224 45.8978L84.7281 39.9782C82.6699 38.9855 80.8323 40.7135 81.6041 42.846L87.264 58.6193C88.9914 63.4727 86.6024 66.0464 83.5152 66.0464C80.6485 66.0464 79.0314 64.7595 79.0314 60.3107Z" fill="white"/>
<path d="M21.689 105.588L37.8602 104.154C40.6166 103.897 41.2414 105 41.2414 106.176C41.2414 108.493 38.9995 110 32.4208 110C23.0121 110 15 106.213 15 99.5212C15 96.1754 18.124 94.4105 21.7257 95.8812L29.0763 98.8962C30.7669 99.5948 31.502 98.2344 30.0319 97.2049L19.0796 89.594C17.4257 88.4174 16.5069 87.0938 16.5069 85.7334C16.5069 82.0566 20.9172 80.9536 25.8053 80.9536C30.7302 80.9168 36.2431 81.7625 38.3747 82.7552C40.3226 83.6744 41.3517 84.851 41.2414 86.9467C41.1312 89.1528 39.4773 90.0352 36.3166 88.9322L21.2847 83.6744C19.4838 83.0494 18.4915 84.5568 18.4915 85.3657C18.4915 86.2849 18.7855 87.0203 20.5129 87.5718L34.8465 92.131C38.0807 93.1604 38.5952 94.8885 38.5952 96.2489C38.5952 98.0138 37.6397 99.7051 34.8465 100.036L21.689 101.654C19.4471 101.948 18.6018 102.683 18.6018 103.75C18.6018 104.779 19.5573 105.772 21.689 105.588Z" fill="white"/>
<path d="M44.3409 101.764V101.654C44.3409 94.5944 46.2153 93.4178 47.4281 93.4914C48.3837 93.5281 49.8538 94.5944 48.5675 97.4623L46.3256 102.463C45.223 104.889 48.0162 105.992 49.0085 103.676L55.8078 87.6453C57.5351 83.5273 58.8582 81.4684 63.048 81.4684H69.0755C73.4123 81.4684 74.5516 84.2627 74.6619 88.1968L75.1029 104.227C75.2132 108.309 73.4858 109.963 70.5823 109.963C66.3558 109.963 64.7019 105.147 68.4874 102.095L72.0892 99.1903C73.302 98.1976 72.6772 96.6901 71.2071 96.8004L64.2976 97.2417C61.7249 97.3887 60.9164 94.2267 62.9745 93.0501L71.2071 88.4174C73.6696 87.0203 71.8319 82.5346 68.3772 84.4098L58.0497 90.0352C56.3223 90.9912 56.1018 91.6162 56.3958 93.8958L57.4616 102.426C58.0129 106.838 55.9915 109.963 51.3239 109.963C47.1709 109.963 44.3409 107.684 44.3409 101.764Z" fill="white"/>
<path d="M93.9081 109.412H87.5866C82.4045 109.412 79.648 106.176 79.8685 101.838L80.6403 87.3144C80.8976 82.4978 82.772 80.9168 85.7857 80.9168C88.1379 80.9168 89.4977 82.5714 89.4977 84.6671C89.4977 86.2849 88.6524 87.6085 87.1456 89.4102L82.772 94.5944C81.8532 95.6606 81.4121 97.2049 82.4045 98.3079C83.5438 99.558 85.3447 99.1536 86.337 97.977L90.6738 92.8295C93.3568 89.6675 95.7824 87.6085 98.8697 87.6085C102.618 87.6085 106.036 91.5794 106 97.1681C105.963 104.007 101.479 109.412 93.9081 109.412ZM85.2712 101.801C85.2712 102.573 85.8592 103.014 86.8148 103.455L92.585 106.139C94.5696 107.059 95.4517 106.764 96.8483 104.889L103.354 96.1754C105.118 93.7855 103.059 91.3588 100.303 92.8295L86.5575 100.146C85.6387 100.624 85.2712 101.176 85.2712 101.801Z" fill="white"/>
</svg>
