<svg width="154" height="26" viewBox="0 0 154 26" fill="none" xmlns="http://www.w3.org/2000/svg">
<path d="M6.14684 0.493027H12.712C19.76 0.493027 22.8817 4.04282 22.8817 10.7151C22.8817 15.6454 20.8542 19.3595 15.9946 19.3595C13.227 19.3595 11.3282 18.2091 9.17198 15.3167L5.47101 10.3536C4.66645 9.30178 3.15387 9.23604 2.15622 10.3536C1.2873 11.3396 1.44821 12.7858 2.28495 13.739L6.24338 18.2749C7.56286 19.8197 8.10996 21.0687 8.10996 22.6793C8.10996 24.98 6.72612 25.9661 4.24807 25.9661C2.02749 25.9661 0 25.2101 0 21.0687V6.90238C0 3.22111 1.96313 0.493027 6.14684 0.493027ZM4.73081 7.2968C4.73081 7.85557 5.05263 8.34859 5.85719 8.77588L17.0245 14.5607C20.2749 16.237 22.0771 14.1334 20.4036 11.7012L15.5119 4.53585C14.3533 2.85956 13.7741 2.69522 12.0362 3.41832L6.08247 5.91633C5.24573 6.27788 4.73081 6.60656 4.73081 7.2968Z" fill="white"/>
<path d="M25.9282 21.2988L26.3787 6.54083C26.4431 4.50298 26.8615 0 31.3026 0C35.422 0 36.1622 4.70019 32.6865 6.6723L28.8568 8.84162C27.6982 9.49899 27.5051 10.748 28.2453 12.2271L31.2383 18.2749C32.0428 19.9183 33.9416 19.8197 34.4243 17.9462L37.6748 5.32469C38.6402 1.54482 40.7321 0 44.1434 0C48.1018 0 49.9362 2.43227 49.7753 7.32967L49.2926 21.0687C49.1639 24.8157 47.072 25.9661 45.1411 25.9661C40.9574 25.9661 41.3435 21.4302 42.8561 17.5518L47.6513 5.32469C48.488 3.18824 46.0422 1.57769 44.7227 3.84561L33.8129 22.5149C32.2038 25.2759 30.9486 25.9661 29.1464 25.9661C27.1511 25.9661 25.8316 24.4541 25.9282 21.2988Z" fill="white"/>
<path d="M54.1544 20.8386L54.1866 6.50796C54.1866 2.59661 55.313 0.493027 59.6898 0.493027H67.9606C71.6938 0.493027 72.9489 2.59661 72.4018 6.60656L71.726 11.6354C71.2754 15.0538 70.2456 16.1056 68.3146 16.1056C66.0619 16.1056 65.2573 13.3117 67.2526 11.9641L70.0847 10.0249C71.018 9.40038 70.9536 8.38146 70.0847 7.95417L59.1427 2.66235C57.3405 1.7749 55.7313 3.31972 56.4072 5.22609L61.3633 19.3267C62.8758 23.6653 60.784 25.9661 58.0806 25.9661C55.5704 25.9661 54.1544 24.8157 54.1544 20.8386Z" fill="white"/>
<path d="M94.9307 5.25896L80.7705 3.97709C78.9039 3.81274 78.0672 4.70019 78.0672 5.62051C78.0672 6.5737 78.8074 7.23107 80.7705 7.49401L92.2918 8.94023C94.7376 9.23604 95.5744 10.748 95.5744 12.3257C95.5744 13.5418 95.1238 15.0866 92.2918 16.0069L79.7406 20.0826C78.2281 20.5757 77.9706 21.233 77.9706 22.0547C77.9706 22.7779 78.8395 24.1255 80.4165 23.5667L93.5791 18.8665C96.3468 17.8805 97.795 18.6693 97.8915 20.6414C97.9881 22.5149 97.087 23.5667 95.3813 24.3884C93.5147 25.2759 88.6874 26.0318 84.3749 25.999C80.0947 25.999 76.2328 25.0129 76.2328 21.7261C76.2328 20.5099 77.0373 19.3267 78.4855 18.2749L88.0759 11.4711C89.3632 10.5508 88.7195 9.33465 87.2391 9.95915L80.8027 12.6544C77.6488 13.9691 74.9133 12.3914 74.9133 9.40038C74.9133 3.41832 81.9291 0.0328681 90.1677 0.0328681C95.9284 0.0328681 97.8915 1.38048 97.8915 3.45119C97.8915 4.50298 97.3444 5.48904 94.9307 5.25896Z" fill="white"/>
<path d="M100.155 18.6364V18.5378C100.155 12.2271 101.796 11.1753 102.858 11.241C103.695 11.2739 104.982 12.2271 103.856 14.7908L101.893 19.2609C100.927 21.4302 103.373 22.4163 104.242 20.3456L110.196 6.01493C111.709 2.33366 112.867 0.493027 116.536 0.493027H121.814C125.611 0.493027 126.609 2.99103 126.706 6.50796L127.092 20.8386C127.188 24.487 125.676 25.9661 123.133 25.9661C119.432 25.9661 117.984 21.6603 121.299 18.9322L124.453 16.3356C125.515 15.4482 124.968 14.1006 123.68 14.1992L117.63 14.5936C115.377 14.7251 114.669 11.8984 116.472 10.8466L123.68 6.70517C125.837 5.45617 124.228 1.44621 121.202 3.12251L112.159 8.15138C110.647 9.00596 110.453 9.56473 110.711 11.6026L111.644 19.2281C112.127 23.1723 110.357 25.9661 106.27 25.9661C102.633 25.9661 100.155 23.9283 100.155 18.6364Z" fill="white"/>
<path d="M143.412 25.4731H137.876C133.339 25.4731 130.925 22.5806 131.118 18.7022L131.794 5.71912C132.019 1.41334 133.66 0 136.299 0C138.359 0 139.55 1.47908 139.55 3.35258C139.55 4.7988 138.81 5.98206 137.49 7.59262L133.66 12.2271C132.856 13.1803 132.47 14.5607 133.339 15.5468C134.336 16.6643 135.913 16.3028 136.782 15.251L140.58 10.6494C142.929 7.8227 145.053 5.98206 147.756 5.98206C151.039 5.98206 154.032 9.53186 154 14.5279C153.968 20.6414 150.041 25.4731 143.412 25.4731ZM135.849 18.6693C135.849 19.3595 136.364 19.754 137.201 20.1484L142.253 22.5478C143.991 23.3695 144.763 23.1065 145.986 21.4302L151.683 13.6404C153.227 11.504 151.425 9.33465 149.011 10.6494L136.975 17.1902C136.171 17.6175 135.849 18.1105 135.849 18.6693Z" fill="white"/>
</svg>
