<svg width="24" height="24" viewBox="0 0 24 24" fill="none" xmlns="http://www.w3.org/2000/svg">
<path d="M21.9632 18.8545C21.8299 19.4284 21.5149 19.944 21.0649 20.3245C20.5631 20.8351 19.964 21.24 19.303 21.5153C18.642 21.7906 17.9326 21.9306 17.2166 21.9271H16.8593C15.3731 21.8507 13.9165 21.483 12.572 20.8451C12.2454 20.6919 11.9289 20.549 11.5512 20.3755C9.97562 19.4849 8.52964 18.3824 7.25369 17.0988C5.59398 15.5427 4.2342 13.6951 3.24201 11.6478C2.69518 10.5314 2.32663 9.33617 2.14976 8.10567C1.90507 6.8232 2.05087 5.49685 2.56829 4.29816C2.88967 3.75315 3.28468 3.25506 3.74218 2.81801C3.94517 2.59364 4.19179 2.41303 4.46695 2.2872C4.7522 2.15513 5.06124 2.08218 5.37544 2.07281C5.71168 2.10836 6.03745 2.21065 6.33368 2.37366C6.6299 2.53667 6.89062 2.75715 7.10057 3.02218C7.57013 3.54278 8.12135 4.04295 8.62153 4.57376L9.26463 5.20664C9.64525 5.53971 9.87985 6.0089 9.91793 6.51324C9.91934 6.97679 9.74833 7.42431 9.43816 7.76882C9.24236 8.01048 9.03453 8.24214 8.81548 8.46294L8.60113 8.68751C8.47548 8.80365 8.37776 8.94674 8.31531 9.10604C8.26275 9.26016 8.2453 9.42408 8.26427 9.58581C8.42838 10.03 8.68599 10.4339 9.01965 10.7699C9.54025 11.4743 10.0405 12.0867 10.6019 12.8115C11.5705 13.9302 12.7195 14.879 14.0011 15.6186C14.1248 15.7194 14.2725 15.7863 14.4298 15.8126C14.569 15.8341 14.7114 15.8127 14.8382 15.7514C15.2271 15.542 15.5734 15.2615 15.8589 14.9245C16.2195 14.4815 16.7405 14.1989 17.3085 14.1385C17.581 14.1396 17.8506 14.1953 18.1013 14.3022C18.352 14.4091 18.5787 14.5652 18.7682 14.7612C19.002 14.9621 19.2236 15.1769 19.4317 15.4043L19.7379 15.7309L20.0544 16.0372C20.2483 16.2311 20.4321 16.4047 20.6158 16.6088C20.948 16.895 21.2585 17.2055 21.5447 17.5377C21.8378 17.9122 21.9864 18.3796 21.9632 18.8545Z" fill="white"/>
</svg>
